<svg width="162" height="46" viewBox="0 0 162 46" fill="none" xmlns="http://www.w3.org/2000/svg">
<path d="M25 45C37.1503 45 47 35.1503 47 23C47 10.8497 37.1503 1 25 1C12.8497 1 3 10.8497 3 23C3 35.1503 12.8497 45 25 45Z" fill="#2FD2E5"/>
<path d="M25.7837 6.50966C22.0684 6.38058 18.4217 7.53257 15.4548 9.77253C15.1671 9.98874 14.9311 10.2662 14.7639 10.5849C14.5967 10.9035 14.5024 11.2553 14.488 11.6149C14.4735 11.9745 14.5391 12.3327 14.6802 12.6638C14.8212 12.9949 15.0342 13.2904 15.3035 13.529C16.1588 14.3375 17.476 14.4008 18.4055 13.6789C20.6815 11.9076 23.5387 11.0536 26.4134 11.2852C29.2881 11.5168 31.9717 12.8173 33.9347 14.9302C34.746 15.7689 34.7708 17.0903 33.9925 17.9593C33.7969 18.1691 33.5619 18.3383 33.3009 18.4572C33.0398 18.5762 32.7579 18.6425 32.4713 18.6525C32.1846 18.6624 31.8988 18.6158 31.6302 18.5153C31.3615 18.4147 31.1153 18.2622 30.9056 18.0665L30.7998 17.9593C29.8209 16.8859 28.5403 16.1336 27.1261 15.8012C25.7119 15.4688 24.2303 15.5718 22.8757 16.0967C21.5212 16.6216 20.357 17.5438 19.5361 18.7424C18.7151 19.9409 18.2758 21.3596 18.2758 22.8123C18.2758 24.2651 18.7151 25.6838 19.5361 26.8823C20.357 28.0809 21.5212 29.0031 22.8757 29.528C24.2303 30.0529 25.7119 30.1559 27.1261 29.8235C28.5403 29.4911 29.8209 28.7388 30.7998 27.6654C31.1133 27.3145 31.5338 27.0768 31.9962 26.989C32.4585 26.9013 32.9369 26.9684 33.3572 27.18C33.6563 27.33 33.9166 27.5471 34.1178 27.8144C34.3191 28.0816 34.4558 28.3918 34.5173 28.7206C34.5788 29.0494 34.5634 29.388 34.4724 29.7099C34.3813 30.0319 34.2171 30.3284 33.9925 30.5763C32.0375 32.7163 29.3505 34.0446 26.463 34.2982C23.5755 34.5518 20.6981 33.7123 18.4 31.9458C17.9453 31.5993 17.3828 31.4245 16.8118 31.4522C16.2408 31.4799 15.6979 31.7082 15.2788 32.097C15.0112 32.3422 14.8013 32.6436 14.6641 32.9796C14.527 33.3156 14.466 33.6778 14.4856 34.0402C14.5052 34.4026 14.6049 34.7561 14.7775 35.0754C14.95 35.3946 15.1912 35.6716 15.4836 35.8865C17.5347 37.4076 19.9144 38.4254 22.4311 38.8579C24.9477 39.2903 27.5307 39.1254 29.9719 38.3763C32.4131 37.6272 34.644 36.3149 36.4849 34.5452C38.3258 32.7756 39.725 30.5981 40.5698 28.1884C41.4147 25.7787 41.6814 23.2042 41.3485 20.6725C41.0157 18.1408 40.0925 15.7227 38.6536 13.6132C37.2146 11.5038 35.3 9.76201 33.0643 8.52835C30.8286 7.2947 28.3342 6.60368 25.7824 6.51103L25.7837 6.50966ZM25.4813 26.8432C24.9516 26.8412 24.4276 26.7349 23.9391 26.5304C23.4506 26.3259 23.0071 26.0272 22.634 25.6513C22.2609 25.2754 21.9655 24.8297 21.7647 24.3396C21.5639 23.8496 21.4615 23.3248 21.4635 22.7952C21.4655 22.2656 21.5718 21.7415 21.7763 21.253C21.9808 20.7645 22.2795 20.321 22.6554 19.9479C23.0313 19.5748 23.477 19.2794 23.967 19.0786C24.4571 18.8778 24.9819 18.7754 25.5115 18.7774C26.5811 18.7812 27.6053 19.2098 28.3589 19.9688C29.1125 20.7278 29.5338 21.7551 29.5299 22.8247C29.5261 23.8943 29.0975 24.9186 28.3385 25.6722C27.5795 26.4258 26.5522 26.847 25.4826 26.8432H25.4813Z" fill="white"/>
<path d="M63.0129 29L59.3328 16.1388H62.3032L64.4321 25.0751H64.5389L66.8876 16.1388H69.4309L71.7733 25.0939H71.8864L74.0153 16.1388H76.9856L73.3056 29H70.6555L68.2063 20.5912H68.1059L65.663 29H63.0129ZM81.7128 29.1884C80.7374 29.1884 79.8938 28.9812 79.182 28.5667C78.4745 28.148 77.9282 27.5661 77.543 26.8209C77.1578 26.0715 76.9652 25.2028 76.9652 24.2147C76.9652 23.2183 77.1578 22.3475 77.543 21.6023C77.9282 20.8529 78.4745 20.2709 79.182 19.8565C79.8938 19.4378 80.7374 19.2285 81.7128 19.2285C82.6883 19.2285 83.5298 19.4378 84.2374 19.8565C84.9491 20.2709 85.4975 20.8529 85.8827 21.6023C86.2679 22.3475 86.4605 23.2183 86.4605 24.2147C86.4605 25.2028 86.2679 26.0715 85.8827 26.8209C85.4975 27.5661 84.9491 28.148 84.2374 28.5667C83.5298 28.9812 82.6883 29.1884 81.7128 29.1884ZM81.7254 27.116C82.1692 27.116 82.5397 26.9904 82.8369 26.7392C83.1342 26.4839 83.3582 26.1364 83.5089 25.6968C83.6638 25.2572 83.7413 24.7569 83.7413 24.1959C83.7413 23.6349 83.6638 23.1346 83.5089 22.695C83.3582 22.2554 83.1342 21.9079 82.8369 21.6525C82.5397 21.3971 82.1692 21.2694 81.7254 21.2694C81.2774 21.2694 80.9006 21.3971 80.595 21.6525C80.2936 21.9079 80.0654 22.2554 79.9105 22.695C79.7598 23.1346 79.6844 23.6349 79.6844 24.1959C79.6844 24.7569 79.7598 25.2572 79.9105 25.6968C80.0654 26.1364 80.2936 26.4839 80.595 26.7392C80.9006 26.9904 81.2774 27.116 81.7254 27.116ZM89.861 29L87.236 19.3541H89.9427L91.4373 25.8349H91.5252L93.0826 19.3541H95.739L97.3215 25.7972H97.4032L98.8727 19.3541H101.573L98.9543 29H96.1221L94.4642 22.9336H94.3449L92.687 29H89.861ZM104.903 29L102.278 19.3541H104.985L106.479 25.8349H106.567L108.125 19.3541H110.781L112.363 25.7972H112.445L113.915 19.3541H116.615L113.996 29H111.164L109.506 22.9336H109.387L107.729 29H104.903Z" fill="white"/>
</svg>
