<svg width="162" height="46" viewBox="0 0 162 46" fill="none" xmlns="http://www.w3.org/2000/svg">
<path d="M25 45C37.1503 45 47 35.1503 47 23C47 10.8497 37.1503 1 25 1C12.8497 1 3 10.8497 3 23C3 35.1503 12.8497 45 25 45Z" fill="black"/>
<path d="M25.7837 6.50966C22.0684 6.38058 18.4217 7.53257 15.4548 9.77253C15.1671 9.98874 14.9311 10.2662 14.7639 10.5849C14.5967 10.9035 14.5024 11.2553 14.488 11.6149C14.4735 11.9745 14.5391 12.3327 14.6802 12.6638C14.8212 12.9949 15.0342 13.2904 15.3035 13.529C16.1588 14.3375 17.476 14.4008 18.4055 13.6789C20.6815 11.9076 23.5387 11.0536 26.4134 11.2852C29.2881 11.5168 31.9717 12.8173 33.9347 14.9302C34.746 15.7689 34.7708 17.0903 33.9925 17.9593C33.7969 18.1691 33.5619 18.3383 33.3009 18.4572C33.0398 18.5762 32.7579 18.6425 32.4713 18.6525C32.1846 18.6624 31.8988 18.6158 31.6302 18.5153C31.3615 18.4147 31.1153 18.2622 30.9056 18.0665L30.7998 17.9593C29.8209 16.8859 28.5403 16.1336 27.1261 15.8012C25.7119 15.4688 24.2303 15.5718 22.8757 16.0967C21.5212 16.6216 20.357 17.5438 19.5361 18.7424C18.7151 19.9409 18.2758 21.3596 18.2758 22.8123C18.2758 24.2651 18.7151 25.6838 19.5361 26.8823C20.357 28.0809 21.5212 29.0031 22.8757 29.528C24.2303 30.0529 25.7119 30.1559 27.1261 29.8235C28.5403 29.4911 29.8209 28.7388 30.7998 27.6654C31.1133 27.3145 31.5338 27.0768 31.9962 26.989C32.4585 26.9013 32.9369 26.9684 33.3572 27.18C33.6563 27.33 33.9166 27.5471 34.1178 27.8144C34.3191 28.0816 34.4558 28.3918 34.5173 28.7206C34.5788 29.0494 34.5634 29.388 34.4724 29.7099C34.3813 30.0319 34.2171 30.3284 33.9925 30.5763C32.0375 32.7163 29.3505 34.0446 26.463 34.2982C23.5755 34.5518 20.6981 33.7123 18.4 31.9458C17.9453 31.5993 17.3828 31.4245 16.8118 31.4522C16.2408 31.4799 15.6979 31.7082 15.2788 32.097C15.0112 32.3422 14.8013 32.6436 14.6641 32.9796C14.527 33.3156 14.466 33.6778 14.4856 34.0402C14.5052 34.4026 14.6049 34.7561 14.7775 35.0754C14.95 35.3946 15.1912 35.6716 15.4836 35.8865C17.5347 37.4076 19.9144 38.4254 22.4311 38.8579C24.9477 39.2903 27.5307 39.1254 29.9719 38.3763C32.4131 37.6272 34.644 36.3149 36.4849 34.5452C38.3258 32.7756 39.725 30.5981 40.5698 28.1884C41.4147 25.7787 41.6814 23.2042 41.3485 20.6725C41.0157 18.1408 40.0925 15.7227 38.6536 13.6132C37.2146 11.5038 35.3 9.76201 33.0643 8.52835C30.8286 7.2947 28.3342 6.60368 25.7824 6.51103L25.7837 6.50966ZM25.4813 26.8432C24.9516 26.8412 24.4276 26.7349 23.9391 26.5304C23.4506 26.3259 23.0071 26.0272 22.634 25.6513C22.2609 25.2754 21.9655 24.8297 21.7647 24.3396C21.5639 23.8496 21.4615 23.3248 21.4635 22.7952C21.4655 22.2656 21.5718 21.7415 21.7763 21.253C21.9808 20.7645 22.2795 20.321 22.6554 19.9479C23.0313 19.5748 23.477 19.2794 23.967 19.0786C24.4571 18.8778 24.9819 18.7754 25.5115 18.7774C26.5811 18.7812 27.6053 19.2098 28.3589 19.9688C29.1125 20.7278 29.5338 21.7551 29.5299 22.8247C29.5261 23.8943 29.0975 24.9186 28.3385 25.6722C27.5795 26.4258 26.5522 26.847 25.4826 26.8432H25.4813Z" fill="white"/>
<path d="M60.0129 28L56.3328 15.1388H59.3032L61.4321 24.0751H61.5389L63.8876 15.1388H66.4309L68.7733 24.0939H68.8864L71.0153 15.1388H73.9856L70.3056 28H67.6555L65.2063 19.5912H65.1059L62.663 28H60.0129ZM78.7128 28.1884C77.7374 28.1884 76.8938 27.9812 76.182 27.5667C75.4745 27.148 74.9282 26.5661 74.543 25.8209C74.1578 25.0715 73.9652 24.2028 73.9652 23.2147C73.9652 22.2183 74.1578 21.3475 74.543 20.6023C74.9282 19.8529 75.4745 19.2709 76.182 18.8565C76.8938 18.4378 77.7374 18.2285 78.7128 18.2285C79.6883 18.2285 80.5298 18.4378 81.2374 18.8565C81.9491 19.2709 82.4975 19.8529 82.8827 20.6023C83.2679 21.3475 83.4605 22.2183 83.4605 23.2147C83.4605 24.2028 83.2679 25.0715 82.8827 25.8209C82.4975 26.5661 81.9491 27.148 81.2374 27.5667C80.5298 27.9812 79.6883 28.1884 78.7128 28.1884ZM78.7254 26.116C79.1692 26.116 79.5397 25.9904 79.8369 25.7392C80.1342 25.4839 80.3582 25.1364 80.5089 24.6968C80.6638 24.2572 80.7413 23.7569 80.7413 23.1959C80.7413 22.6349 80.6638 22.1346 80.5089 21.695C80.3582 21.2554 80.1342 20.9079 79.8369 20.6525C79.5397 20.3971 79.1692 20.2694 78.7254 20.2694C78.2774 20.2694 77.9006 20.3971 77.595 20.6525C77.2936 20.9079 77.0654 21.2554 76.9105 21.695C76.7598 22.1346 76.6844 22.6349 76.6844 23.1959C76.6844 23.7569 76.7598 24.2572 76.9105 24.6968C77.0654 25.1364 77.2936 25.4839 77.595 25.7392C77.9006 25.9904 78.2774 26.116 78.7254 26.116ZM86.861 28L84.236 18.3541H86.9427L88.4373 24.8349H88.5252L90.0826 18.3541H92.739L94.3215 24.7972H94.4032L95.8727 18.3541H98.573L95.9543 28H93.1221L91.4642 21.9336H91.3449L89.687 28H86.861ZM101.903 28L99.278 18.3541H101.985L103.479 24.8349H103.567L105.125 18.3541H107.781L109.363 24.7972H109.445L110.915 18.3541H113.615L110.996 28H108.164L106.506 21.9336H106.387L104.729 28H101.903Z" fill="black"/>
</svg>
